<svg width="18" height="18" viewBox="0 0 18 18" fill="none" xmlns="http://www.w3.org/2000/svg">
<path d="M9.00005 1.79999C7.57603 1.79999 6.18398 2.22226 4.99995 3.01341C3.81591 3.80455 2.89307 4.92904 2.34812 6.24467C1.80317 7.56029 1.66058 9.00797 1.9384 10.4046C2.21621 11.8013 2.90195 13.0842 3.90888 14.0912C4.91582 15.0981 6.19874 15.7838 7.5954 16.0616C8.99207 16.3395 10.4397 16.1969 11.7554 15.6519C13.071 15.107 14.1955 14.1841 14.9866 13.0001C15.7778 11.8161 16.2001 10.424 16.2001 8.99999C16.1944 7.09218 15.434 5.26414 14.0849 3.91511C12.7359 2.56608 10.9079 1.80569 9.00005 1.79999ZM12.6001 9.89999H9.00005C8.76136 9.89999 8.53244 9.80517 8.36366 9.63638C8.19487 9.4676 8.10005 9.23868 8.10005 8.99999L8.10005 5.39999C8.10005 5.16129 8.19487 4.93237 8.36366 4.76359C8.53244 4.59481 8.76136 4.49999 9.00005 4.49999C9.23875 4.49999 9.46767 4.59481 9.63645 4.76359C9.80523 4.93237 9.90005 5.16129 9.90005 5.39999L9.90005 8.09999L12.6001 8.09999C12.8387 8.09999 13.0677 8.19481 13.2364 8.36359C13.4052 8.53237 13.5001 8.76129 13.5001 8.99999C13.5001 9.23868 13.4052 9.4676 13.2364 9.63638C13.0677 9.80517 12.8387 9.89999 12.6001 9.89999Z" fill="#00BDD6"/>
</svg>
