<svg width="40" height="40" viewBox="0 0 40 40" fill="none" xmlns="http://www.w3.org/2000/svg">
<path d="M29.643 14.9999C27.282 14.9999 23.365 17.5569 19.218 20.2639C15.817 22.4839 11.962 24.9999 10.357 24.9999C9.8071 25.0284 9.25704 24.947 8.73894 24.7605C8.22084 24.574 7.74508 24.2862 7.33946 23.9138C6.93384 23.5414 6.60648 23.092 6.3765 22.5917C6.14652 22.0913 6.01853 21.5502 6 20.9999C6.01853 20.4496 6.14652 19.9085 6.3765 19.4081C6.60648 18.9078 6.93384 18.4584 7.33946 18.086C7.74508 17.7136 8.22084 17.4257 8.73894 17.2393C9.25704 17.0528 9.8071 16.9714 10.357 16.9999C11.0456 17.028 11.7233 17.1811 12.357 17.4519L10.873 20.1799C10.8316 20.256 10.8106 20.3416 10.8123 20.4283C10.8139 20.515 10.838 20.5997 10.8823 20.6743C10.9266 20.7488 10.9895 20.8105 11.0648 20.8534C11.1401 20.8963 11.2253 20.9189 11.312 20.9189C11.358 20.919 11.4038 20.9126 11.448 20.8999L17.024 19.3259C17.0881 19.308 17.1479 19.2775 17.2 19.2361C17.2521 19.1948 17.2955 19.1435 17.3275 19.0852C17.3596 19.0269 17.3796 18.9628 17.3866 18.8966C17.3935 18.8305 17.3872 18.7636 17.368 18.6999L15.687 13.1159C15.6583 13.0216 15.6024 12.9378 15.5262 12.8752C15.4501 12.8125 15.3571 12.7738 15.259 12.7639C15.1611 12.7537 15.0624 12.7727 14.9752 12.8184C14.888 12.8642 14.8163 12.9346 14.769 13.0209L13.322 15.6799C12.3876 15.2616 11.3803 15.0306 10.357 14.9999C9.54359 14.9682 8.73204 15.0991 7.96986 15.385C7.20768 15.6708 6.51018 16.1059 5.9182 16.6646C5.32621 17.2233 4.85164 17.8946 4.52227 18.639C4.1929 19.3834 4.01534 20.186 4 20.9999C4.01534 21.8138 4.1929 22.6164 4.52227 23.3608C4.85164 24.1052 5.32621 24.7765 5.9182 25.3352C6.51018 25.8939 7.20768 26.329 7.96986 26.6148C8.73204 26.9006 9.54359 27.0316 10.357 26.9999C12.557 26.9999 16.15 24.6539 20.311 21.9379C23.857 19.6239 27.877 16.9999 29.643 16.9999C30.1929 16.9714 30.743 17.0528 31.2611 17.2393C31.7792 17.4257 32.2549 17.7136 32.6605 18.086C33.0662 18.4584 33.3935 18.9078 33.6235 19.4081C33.8535 19.9085 33.9815 20.4496 34 20.9999C33.9815 21.5502 33.8535 22.0913 33.6235 22.5917C33.3935 23.092 33.0662 23.5414 32.6605 23.9138C32.2549 24.2862 31.7792 24.574 31.2611 24.7605C30.743 24.947 30.1929 25.0284 29.643 24.9999C28.422 24.9999 26.743 24.3399 24.521 22.9829C24.4089 22.9129 24.284 22.8659 24.1536 22.8445C24.0232 22.8231 23.8899 22.8277 23.7613 22.8582C23.6327 22.8886 23.5114 22.9442 23.4044 23.0218C23.2974 23.0994 23.2069 23.1975 23.1381 23.3102C23.0692 23.423 23.0234 23.5484 23.0033 23.679C22.9831 23.8096 22.9891 23.9429 23.0208 24.0712C23.0525 24.1995 23.1093 24.3202 23.188 24.4264C23.2666 24.5326 23.3655 24.6222 23.479 24.6899C26.063 26.2669 28.022 26.9999 29.643 26.9999C30.4564 27.0316 31.268 26.9006 32.0301 26.6148C32.7923 26.329 33.4898 25.8939 34.0818 25.3352C34.6738 24.7765 35.1484 24.1052 35.4777 23.3608C35.8071 22.6164 35.9847 21.8138 36 20.9999C35.9847 20.186 35.8071 19.3834 35.4777 18.639C35.1484 17.8946 34.6738 17.2233 34.0818 16.6646C33.4898 16.1059 32.7923 15.6708 32.0301 15.385C31.268 15.0991 30.4564 14.9682 29.643 14.9999Z" fill="#00BDD6"/>
</svg>
