<svg width="44" height="44" viewBox="0 0 44 44" fill="none" xmlns="http://www.w3.org/2000/svg">
<path d="M26.5 19.296V19C26.5 16.515 24.485 14.5 22 14.5C19.515 14.5 17.5 16.515 17.5 19V19.296C17.5 20.719 16.743 22.042 15.508 22.75C14.867 23.118 14.5 23.544 14.5 24C14.5 25.381 17.858 26.5 22 26.5C26.142 26.5 29.5 25.381 29.5 24C29.5 23.544 29.133 23.118 28.492 22.75C27.257 22.043 26.5 20.719 26.5 19.296Z" stroke="#9095A0" stroke-miterlimit="10" stroke-linecap="round" stroke-linejoin="round"/>
<path d="M24.292 28C23.906 28.883 23.025 29.5 22 29.5C20.975 29.5 20.095 28.883 19.708 28.001" stroke="#9095A0" stroke-miterlimit="10" stroke-linecap="round" stroke-linejoin="round"/>
</svg>
