<svg width="32" height="32" viewBox="0 0 32 32" fill="none" xmlns="http://www.w3.org/2000/svg">
<path d="M28.8 16C28.7996 13.554 28.0983 11.1592 26.7792 9.09933C25.4601 7.03943 23.5784 5.40062 21.3569 4.37692C19.1353 3.35322 16.667 2.98749 14.2441 3.32304C11.8211 3.65859 9.54507 4.68136 7.68534 6.27027C5.82562 7.85918 4.4601 9.94769 3.75046 12.2885C3.04082 14.6294 3.01677 17.1246 3.68115 19.4787C4.34553 21.8328 5.67053 23.9472 7.49927 25.5717C9.32802 27.1962 11.5839 28.2626 14 28.6448L14 19.7H10.7504V16H14L14 13.18C14 9.97202 15.9112 8.20002 18.8344 8.20002C19.7944 8.21333 20.7521 8.29675 21.7 8.44962L21.7 11.6L20.0856 11.6C19.8104 11.5635 19.5306 11.5893 19.2669 11.6756C19.0031 11.7619 18.7622 11.9065 18.5619 12.0985C18.3616 12.2906 18.207 12.5253 18.1098 12.7852C18.0125 13.0452 17.975 13.3236 18 13.6L18 16L21.5504 16L20.9824 19.7H18L18 28.6448C21.011 28.1685 23.7532 26.6332 25.733 24.3151C27.7129 21.9971 28.8004 19.0485 28.8 16Z" fill="#1877F2"/>
</svg>
