<svg width="24" height="24" viewBox="0 0 24 24" fill="none" xmlns="http://www.w3.org/2000/svg">
<path d="M2.57143 15.4286L21.4286 15.4286" stroke="#565E6C" stroke-width="2.05714" stroke-miterlimit="10" stroke-linecap="square"/>
<path d="M6.85714 21.4286C7.80391 21.4286 8.57142 20.6611 8.57142 19.7143C8.57142 18.7675 7.80391 18 6.85714 18C5.91036 18 5.14285 18.7675 5.14285 19.7143C5.14285 20.6611 5.91036 21.4286 6.85714 21.4286Z" stroke="#565E6C" stroke-width="2.05714" stroke-miterlimit="10" stroke-linecap="square"/>
<path d="M19.7143 21.4286C20.6611 21.4286 21.4286 20.6611 21.4286 19.7143C21.4286 18.7675 20.6611 18 19.7143 18C18.7675 18 18 18.7675 18 19.7143C18 20.6611 18.7675 21.4286 19.7143 21.4286Z" stroke="#565E6C" stroke-width="2.05714" stroke-miterlimit="10" stroke-linecap="square"/>
<path d="M7.71429 12H4.28572" stroke="#565E6C" stroke-width="2.05714" stroke-miterlimit="10" stroke-linecap="square"/>
<path d="M2.57143 2.57141L6 2.57141V5.14284L19.7143 5.14284L18 12" stroke="#565E6C" stroke-width="2.05714" stroke-miterlimit="10" stroke-linecap="square"/>
<path d="M6 8.57141H9.42857" stroke="#565E6C" stroke-width="2.05714" stroke-miterlimit="10" stroke-linecap="square"/>
</svg>
