<svg width="24" height="24" viewBox="0 0 24 24" fill="none" xmlns="http://www.w3.org/2000/svg">
<path d="M2.57153 15.4286L21.4287 15.4286" stroke="#565E6C" stroke-width="2.05714" stroke-miterlimit="10" stroke-linecap="square"/>
<path d="M6.85711 21.4286C7.80388 21.4286 8.57139 20.6611 8.57139 19.7143C8.57139 18.7675 7.80388 18 6.85711 18C5.91033 18 5.14282 18.7675 5.14282 19.7143C5.14282 20.6611 5.91033 21.4286 6.85711 21.4286Z" stroke="#565E6C" stroke-width="2.05714" stroke-miterlimit="10" stroke-linecap="square"/>
<path d="M19.7143 21.4286C20.6611 21.4286 21.4286 20.6611 21.4286 19.7143C21.4286 18.7675 20.6611 18 19.7143 18C18.7675 18 18 18.7675 18 19.7143C18 20.6611 18.7675 21.4286 19.7143 21.4286Z" stroke="#565E6C" stroke-width="2.05714" stroke-miterlimit="10" stroke-linecap="square"/>
<path d="M7.71422 12H4.28564" stroke="#565E6C" stroke-width="2.05714" stroke-miterlimit="10" stroke-linecap="square"/>
<path d="M2.57153 2.57141L6.0001 2.57141V5.14284L19.7144 5.14284L18.0001 12" stroke="#565E6C" stroke-width="2.05714" stroke-miterlimit="10" stroke-linecap="square"/>
<path d="M6 8.57141H9.42857" stroke="#565E6C" stroke-width="2.05714" stroke-miterlimit="10" stroke-linecap="square"/>
</svg>
