<svg width="24" height="24" viewBox="0 0 24 24" fill="none" xmlns="http://www.w3.org/2000/svg">
<path d="M18 14.5714L20.5714 12L18 9.42859V6.00002L14.5714 6.00002L12 3.42859L9.42856 6.00002L5.99999 6.00002L5.99999 9.42859L3.42856 12L5.99999 14.5714L5.99999 18H9.42856L12 20.5714L14.5714 18H18V14.5714Z" stroke="#565E6C" stroke-width="2.05714" stroke-miterlimit="10" stroke-linecap="square"/>
<path d="M14.5714 9.42859L9.42856 14.5714" stroke="#565E6C" stroke-width="2.05714" stroke-miterlimit="10" stroke-linecap="square"/>
<path d="M9.85716 11.1428C10.5672 11.1428 11.1429 10.5672 11.1429 9.85713C11.1429 9.14705 10.5672 8.57141 9.85716 8.57141C9.14708 8.57141 8.57144 9.14705 8.57144 9.85713C8.57144 10.5672 9.14708 11.1428 9.85716 11.1428Z" fill="#565E6C"/>
<path d="M14.1429 15.4285C14.8529 15.4285 15.4286 14.8529 15.4286 14.1428C15.4286 13.4328 14.8529 12.8571 14.1429 12.8571C13.4328 12.8571 12.8571 13.4328 12.8571 14.1428C12.8571 14.8529 13.4328 15.4285 14.1429 15.4285Z" fill="#565E6C"/>
</svg>
