<svg width="24" height="24" viewBox="0 0 24 24" fill="none" xmlns="http://www.w3.org/2000/svg">
<path d="M17.9906 19.2814C17.8749 17.2346 16.7074 16.5848 15 16.0157C13.6954 15.5811 13.3363 14.2114 13.2377 13.4846" stroke="#565E6C" stroke-width="2.05714" stroke-miterlimit="10"/>
<path d="M10.7614 13.4837C10.6646 14.2071 10.3123 15.5786 9 16.0157C7.29257 16.5848 6.12343 17.2328 6.00771 19.2797" stroke="#565E6C" stroke-width="2.05714" stroke-miterlimit="10"/>
<path d="M12 13.7143C10.1066 13.7143 8.57143 12.1791 8.57143 10.2857L8.57143 9.42857C8.57143 7.53514 10.1066 6 12 6C13.8934 6 15.4286 7.53514 15.4286 9.42857V10.2857C15.4286 12.1791 13.8934 13.7143 12 13.7143Z" stroke="#565E6C" stroke-width="2.05714" stroke-miterlimit="10" stroke-linecap="square"/>
<path d="M12 21.4286C17.2073 21.4286 21.4286 17.2072 21.4286 12C21.4286 6.79273 17.2073 2.57141 12 2.57141C6.79275 2.57141 2.57143 6.79273 2.57143 12C2.57143 17.2072 6.79275 21.4286 12 21.4286Z" stroke="#565E6C" stroke-width="2.05714" stroke-miterlimit="10" stroke-linecap="square"/>
</svg>
