<svg width="13" height="13" viewBox="0 0 13 13" fill="none" xmlns="http://www.w3.org/2000/svg">
<g clip-path="url(#clip0_1_450)">
<path d="M11.4695 5.22133C11.278 5.02125 11.08 4.81508 11.0053 4.63379C10.9362 4.46773 10.9322 4.1925 10.9281 3.9259C10.9205 3.43027 10.9124 2.86863 10.5219 2.47812C10.1314 2.08762 9.56973 2.07949 9.0741 2.07187C8.8075 2.06781 8.53227 2.06375 8.36621 1.99469C8.18543 1.92004 7.97875 1.72199 7.77867 1.53055C7.42828 1.19387 7.03016 0.8125 6.5 0.8125C5.96984 0.8125 5.57223 1.19387 5.22133 1.53055C5.02125 1.72199 4.81508 1.92004 4.63379 1.99469C4.46875 2.06375 4.1925 2.06781 3.9259 2.07187C3.43027 2.07949 2.86863 2.08762 2.47812 2.47812C2.08762 2.86863 2.08203 3.43027 2.07187 3.9259C2.06781 4.1925 2.06375 4.46773 1.99469 4.63379C1.92004 4.81457 1.72199 5.02125 1.53055 5.22133C1.19387 5.57172 0.8125 5.96984 0.8125 6.5C0.8125 7.03016 1.19387 7.42777 1.53055 7.77867C1.72199 7.97875 1.92004 8.18492 1.99469 8.36621C2.06375 8.53227 2.06781 8.8075 2.07187 9.0741C2.07949 9.56973 2.08762 10.1314 2.47812 10.5219C2.86863 10.9124 3.43027 10.9205 3.9259 10.9281C4.1925 10.9322 4.46773 10.9362 4.63379 11.0053C4.81457 11.08 5.02125 11.278 5.22133 11.4695C5.57172 11.8061 5.96984 12.1875 6.5 12.1875C7.03016 12.1875 7.42777 11.8061 7.77867 11.4695C7.97875 11.278 8.18492 11.08 8.36621 11.0053C8.53227 10.9362 8.8075 10.9322 9.0741 10.9281C9.56973 10.9205 10.1314 10.9124 10.5219 10.5219C10.9124 10.1314 10.9205 9.56973 10.9281 9.0741C10.9322 8.8075 10.9362 8.53227 11.0053 8.36621C11.08 8.18543 11.278 7.97875 11.4695 7.77867C11.8061 7.42828 12.1875 7.03016 12.1875 6.5C12.1875 5.96984 11.8061 5.57223 11.4695 5.22133ZM8.81867 5.56867L5.97492 8.41242C5.93719 8.45019 5.89239 8.48016 5.84307 8.5006C5.79375 8.52105 5.74089 8.53157 5.6875 8.53157C5.63411 8.53157 5.58125 8.52105 5.53193 8.5006C5.48261 8.48016 5.43781 8.45019 5.40008 8.41242L4.18133 7.19367C4.1051 7.11744 4.06227 7.01405 4.06227 6.90625C4.06227 6.79845 4.1051 6.69506 4.18133 6.61883C4.25756 6.5426 4.36095 6.49977 4.46875 6.49977C4.57655 6.49977 4.67994 6.5426 4.75617 6.61883L5.6875 7.55066L8.24383 4.99383C8.28157 4.95608 8.32638 4.92614 8.3757 4.90571C8.42501 4.88529 8.47787 4.87477 8.53125 4.87477C8.58463 4.87477 8.63749 4.88529 8.6868 4.90571C8.73612 4.92614 8.78093 4.95608 8.81867 4.99383C8.85642 5.03157 8.88636 5.07638 8.90678 5.1257C8.92721 5.17501 8.93773 5.22787 8.93773 5.28125C8.93773 5.33463 8.92721 5.38749 8.90678 5.4368C8.88636 5.48612 8.85642 5.53093 8.81867 5.56867Z" fill="#1DD75B"/>
</g>
<defs>
<clipPath id="clip0_1_450">
<rect width="13" height="13" fill="white"/>
</clipPath>
</defs>
</svg>
