<svg width="32" height="32" viewBox="0 0 32 32" fill="none" xmlns="http://www.w3.org/2000/svg">
<path d="M27.5065 13.8184L16.0521 13.8184L16.0521 18.7272L22.5441 18.7272C21.5041 22 18.9441 23.0912 16.0001 23.0912C14.8595 23.0927 13.7354 22.819 12.7231 22.2934C11.7108 21.7678 10.8402 21.0058 10.1852 20.072C9.53028 19.1382 9.11022 18.0602 8.96072 16.9294C8.81123 15.7987 8.9367 14.6485 9.3265 13.5766C9.7163 12.5047 10.3589 11.5426 11.1998 10.772C12.0407 10.0014 13.0551 9.44498 14.1569 9.15002C15.2588 8.85505 16.4155 8.83022 17.5289 9.07763C18.6423 9.32504 19.6797 9.83739 20.5529 10.5712L24.1201 7.1736C22.6836 5.85047 20.9459 4.89794 19.0578 4.3987C17.1697 3.89946 15.1883 3.86859 13.2855 4.30879C11.3828 4.74898 9.61623 5.64692 8.13923 6.92467C6.66223 8.20241 5.5194 9.82135 4.80997 11.6409C4.10053 13.4605 3.84592 15.4257 4.06824 17.366C4.29057 19.3063 4.9831 21.1631 6.08573 22.775C7.18835 24.387 8.66775 25.7054 10.3955 26.616C12.1232 27.5265 14.0471 28.0016 16.0001 28C22.6169 28 28.5977 23.636 27.5065 13.8184Z" fill="#EA4335"/>
</svg>
