<svg width="28" height="28" viewBox="0 0 28 28" fill="none" xmlns="http://www.w3.org/2000/svg">
<path d="M11.6667 18.6667L11.6667 9.33333C11.6667 8.71449 11.9125 8.121 12.3501 7.68342C12.7877 7.24583 13.3812 7 14 7L24.5 7V5.83333C24.5 4.55 23.45 3.5 22.1667 3.5L5.83333 3.5C5.21449 3.5 4.621 3.74583 4.18342 4.18342C3.74583 4.621 3.5 5.21449 3.5 5.83333L3.5 22.1667C3.5 22.7855 3.74583 23.379 4.18342 23.8166C4.621 24.2542 5.21449 24.5 5.83333 24.5L22.1667 24.5C23.45 24.5 24.5 23.45 24.5 22.1667V21H14C13.3812 21 12.7877 20.7542 12.3501 20.3166C11.9125 19.879 11.6667 19.2855 11.6667 18.6667ZM15.1667 9.33333C14.525 9.33333 14 9.85833 14 10.5L14 17.5C14 18.1417 14.525 18.6667 15.1667 18.6667L24.5 18.6667C25.1417 18.6667 25.6667 18.1417 25.6667 17.5L25.6667 10.5C25.6667 9.85833 25.1417 9.33333 24.5 9.33333L15.1667 9.33333ZM18.6667 15.75C17.6983 15.75 16.9167 14.9683 16.9167 14C16.9167 13.0317 17.6983 12.25 18.6667 12.25C19.635 12.25 20.4167 13.0317 20.4167 14C20.4167 14.9683 19.635 15.75 18.6667 15.75Z" fill="#00BDD6"/>
</svg>
