<svg width="24" height="24" viewBox="0 0 24 24" fill="none" xmlns="http://www.w3.org/2000/svg">
<path d="M12 6.75085L4.28571 13.0629L4.28571 20.5714C4.28571 21.0446 4.66971 21.4286 5.14285 21.4286H10.2857V16.7143C10.2857 16.4777 10.4777 16.2857 10.7143 16.2857H13.2857C13.5223 16.2857 13.7143 16.4777 13.7143 16.7143L13.7143 21.4286L18.8571 21.4286C19.3303 21.4286 19.7143 21.0446 19.7143 20.5714L19.7143 13.0629L12 6.75085Z" fill="#1197AB"/>
<path d="M21.4286 12C21.2374 12 21.0454 11.9366 20.886 11.8063L12 4.53598L3.11401 11.8063C2.74715 12.1054 2.20801 12.0523 1.90801 11.6854C1.60801 11.3186 1.66201 10.7786 2.02887 10.4794L11.4574 2.76513C11.7729 2.50627 12.2272 2.50627 12.5434 2.76513L21.972 10.4794C22.338 10.7794 22.392 11.3186 22.0929 11.6854C21.9232 11.8928 21.6763 12 21.4286 12Z" fill="#1197AB"/>
</svg>
