<svg width="24" height="24" viewBox="0 0 24 24" fill="none" xmlns="http://www.w3.org/2000/svg">
<path d="M12 11.5715L12 21.0001" stroke="#00BDD6" stroke-width="2.05714" stroke-miterlimit="10"/>
<path d="M4.28564 7.28564L11.9999 11.5714L19.7142 7.28564" stroke="#00BDD6" stroke-width="2.05714" stroke-miterlimit="10"/>
<path d="M19.7142 16.7143L19.7142 7.28571L11.9999 3L4.28564 7.28571L4.28564 16.7143L11.9999 21L19.7142 16.7143Z" stroke="#00BDD6" stroke-width="2.05714" stroke-miterlimit="10"/>
<path d="M18.4999 9.99994C18.5022 9.23288 18.2518 8.4864 17.7873 7.87595C17.3228 7.26551 16.6702 6.82509 15.9303 6.62281C15.1903 6.42052 14.4044 6.46765 13.6939 6.75689C12.9835 7.04613 12.3881 7.56137 11.9999 8.22294C11.749 7.79756 11.4106 7.43025 11.0073 7.14526C10.6039 6.86027 10.1447 6.66408 9.65992 6.56965C9.17515 6.47522 8.67586 6.4847 8.19502 6.59745C7.71418 6.71021 7.26273 6.92367 6.87047 7.22376C6.47821 7.52385 6.15407 7.90373 5.91944 8.33833C5.68482 8.77292 5.54505 9.25234 5.50937 9.74493C5.47369 10.2375 5.5429 10.7321 5.71244 11.196C5.88198 11.6598 6.14798 12.0825 6.4929 12.4359L11.9999 18.0649L17.3379 12.5879C17.7026 12.2624 17.9945 11.8637 18.1948 11.4178C18.395 10.9719 18.499 10.4888 18.4999 9.99994Z" stroke="#00BDD6" stroke-linecap="round" stroke-linejoin="round"/>
</svg>
