<svg width="12" height="12" viewBox="0 0 12 12" fill="none" xmlns="http://www.w3.org/2000/svg">
<path d="M6 1C3.24 1 1 3.24 1 6C1 8.76 3.24 11 6 11C8.76 11 11 8.76 11 6C11 3.24 8.76 1 6 1ZM8.475 5.115L5.645 7.945C5.59874 7.99135 5.5438 8.02813 5.48331 8.05322C5.42283 8.07831 5.35798 8.09122 5.2925 8.09122C5.22702 8.09122 5.16217 8.07831 5.10169 8.05322C5.0412 8.02813 4.98626 7.99135 4.94 7.945L3.525 6.53C3.47871 6.48371 3.44199 6.42875 3.41694 6.36827C3.39188 6.30779 3.37899 6.24297 3.37899 6.1775C3.37899 6.11203 3.39188 6.04721 3.41694 5.98673C3.44199 5.92625 3.47871 5.87129 3.525 5.825C3.57129 5.77871 3.62625 5.74199 3.68673 5.71694C3.74721 5.69188 3.81203 5.67899 3.8775 5.67899C3.94297 5.67899 4.00779 5.69188 4.06827 5.71694C4.12875 5.74199 4.18371 5.77871 4.23 5.825L5.29 6.885L7.765 4.41C7.81126 4.36365 7.8662 4.32687 7.92669 4.30178C7.98717 4.27669 8.05202 4.26378 8.1175 4.26378C8.18298 4.26378 8.24783 4.27669 8.30831 4.30178C8.3688 4.32687 8.42374 4.36365 8.47 4.41C8.67 4.605 8.67 4.92 8.475 5.115Z" fill="#1DD75B"/>
</svg>
