<svg width="24" height="24" viewBox="0 0 24 24" fill="none" xmlns="http://www.w3.org/2000/svg">
<path d="M13.3646 15.0548C13.5635 14.9151 13.8275 14.6562 13.8275 14.0142C13.8275 13.5582 13.518 13.2848 12.8572 13.002V15.2811C13.05 15.222 13.2275 15.1517 13.3646 15.0548Z" fill="#EFB034"/>
<path d="M12.0001 1.71436C6.32836 1.71436 1.71436 6.32836 1.71436 12.0001C1.71436 17.6718 6.32836 22.2858 12.0001 22.2858C17.6718 22.2858 22.2858 17.6718 22.2858 12.0001C22.2858 6.32836 17.6718 1.71436 12.0001 1.71436ZM15.5418 14.0152C15.5418 15.3429 14.8938 16.0766 14.3495 16.4589C13.9235 16.7581 13.4101 16.9364 12.8572 17.0392V18.8572H11.1429V17.1112C10.1564 17.0366 9.15007 16.8018 8.28007 16.4881L7.47436 16.1975L8.05636 14.5852L8.86293 14.8766C9.6515 15.1612 10.4349 15.3309 11.1429 15.3961L11.1429 12.3884C9.78093 11.8998 8.26978 11.1369 8.26978 9.19807C8.26978 8.23121 8.71807 7.43321 9.53321 6.9515C9.99778 6.67721 10.5566 6.52893 11.1429 6.4595L11.1429 5.14293L12.8572 5.14293L12.8572 6.47236C13.8661 6.58978 14.7901 6.86664 15.3052 7.15121L16.0569 7.5635L15.2315 9.06607L14.4806 8.65293C14.1095 8.44893 13.5035 8.28264 12.8572 8.19264V11.1618C14.1669 11.6246 15.5418 12.2949 15.5418 14.0152Z" fill="#EFB034"/>
<path d="M10.4065 8.42835C10.1107 8.6032 9.98389 8.83292 9.98389 9.19806C9.98389 9.84692 10.3516 10.2009 11.1427 10.5446V8.19092C10.8616 8.23978 10.6027 8.31178 10.4065 8.42835Z" fill="#EFB034"/>
</svg>
