<svg width="16" height="16" viewBox="0 0 16 16" fill="none" xmlns="http://www.w3.org/2000/svg">
<path d="M8.0001 1.60001C4.4801 1.60001 1.6001 4.48001 1.6001 8.00001C1.6001 11.52 4.4801 14.4 8.0001 14.4C11.5201 14.4 14.4001 11.52 14.4001 8.00001C14.4001 4.48001 11.5201 1.60001 8.0001 1.60001ZM10.9657 6.96561L7.7657 10.1656C7.6097 10.3216 7.4049 10.4 7.2001 10.4C6.9953 10.4 6.7905 10.3216 6.6345 10.1656L5.0345 8.56561C4.7217 8.25281 4.7217 7.74721 5.0345 7.43441C5.3473 7.12161 5.8529 7.12161 6.1657 7.43441L7.2001 8.46881L9.8345 5.83441C10.1473 5.52161 10.6529 5.52161 10.9657 5.83441C11.2785 6.14721 11.2785 6.65281 10.9657 6.96561Z" fill="#1DD75B"/>
</svg>
