<svg width="24" height="24" viewBox="0 0 24 24" fill="none" xmlns="http://www.w3.org/2000/svg">
<path d="M17.9999 14.5714L20.5713 12L17.9999 9.42859V6.00002L14.5713 6.00002L11.9999 3.42859L9.42847 6.00002L5.9999 6.00002L5.9999 9.42859L3.42847 12L5.9999 14.5714L5.9999 18H9.42847L11.9999 20.5714L14.5713 18H17.9999V14.5714Z" stroke="#565E6C" stroke-width="2.05714" stroke-miterlimit="10" stroke-linecap="square"/>
<path d="M14.5713 9.42859L9.42847 14.5714" stroke="#565E6C" stroke-width="2.05714" stroke-miterlimit="10" stroke-linecap="square"/>
<path d="M9.85725 11.1428C10.5673 11.1428 11.143 10.5672 11.143 9.85713C11.143 9.14705 10.5673 8.57141 9.85725 8.57141C9.14717 8.57141 8.57153 9.14705 8.57153 9.85713C8.57153 10.5672 9.14717 11.1428 9.85725 11.1428Z" fill="#565E6C"/>
<path d="M14.1429 15.4285C14.853 15.4285 15.4286 14.8529 15.4286 14.1428C15.4286 13.4328 14.853 12.8571 14.1429 12.8571C13.4328 12.8571 12.8572 13.4328 12.8572 14.1428C12.8572 14.8529 13.4328 15.4285 14.1429 15.4285Z" fill="#565E6C"/>
</svg>
