<svg width="16" height="16" viewBox="0 0 16 16" fill="none" xmlns="http://www.w3.org/2000/svg">
<g clip-path="url(#clip0_1_546)">
<path d="M7.99998 14.6666C4.31798 14.6666 1.33331 11.682 1.33331 7.99998C1.33331 4.31798 4.31798 1.33331 7.99998 1.33331C11.682 1.33331 14.6666 4.31798 14.6666 7.99998C14.6666 11.682 11.682 14.6666 7.99998 14.6666ZM4.66665 8.66665C4.66665 9.5507 5.01784 10.3985 5.64296 11.0237C6.26808 11.6488 7.11592 12 7.99998 12C8.88403 12 9.73188 11.6488 10.357 11.0237C10.9821 10.3985 11.3333 9.5507 11.3333 8.66665L9.99998 8.66665C9.99998 9.19708 9.78927 9.70579 9.41419 10.0809C9.03912 10.4559 8.53041 10.6666 7.99998 10.6666C7.46955 10.6666 6.96084 10.4559 6.58577 10.0809C6.21069 9.70579 5.99998 9.19708 5.99998 8.66665H4.66665ZM5.33331 7.33331C5.59853 7.33331 5.85288 7.22796 6.04042 7.04042C6.22796 6.85288 6.33331 6.59853 6.33331 6.33331C6.33331 6.0681 6.22796 5.81374 6.04042 5.62621C5.85288 5.43867 5.59853 5.33331 5.33331 5.33331C5.0681 5.33331 4.81374 5.43867 4.62621 5.62621C4.43867 5.81374 4.33331 6.0681 4.33331 6.33331C4.33331 6.59853 4.43867 6.85288 4.62621 7.04042C4.81374 7.22796 5.0681 7.33331 5.33331 7.33331ZM10.6666 7.33331C10.9319 7.33331 11.1862 7.22796 11.3738 7.04042C11.5613 6.85288 11.6666 6.59853 11.6666 6.33331C11.6666 6.0681 11.5613 5.81374 11.3738 5.62621C11.1862 5.43867 10.9319 5.33331 10.6666 5.33331C10.4014 5.33331 10.1471 5.43867 9.95954 5.62621C9.772 5.81374 9.66665 6.0681 9.66665 6.33331C9.66665 6.59853 9.772 6.85288 9.95954 7.04042C10.1471 7.22796 10.4014 7.33331 10.6666 7.33331Z" fill="#00BDD6"/>
</g>
<defs>
<clipPath id="clip0_1_546">
<rect width="16" height="16" fill="white"/>
</clipPath>
</defs>
</svg>
