<svg width="32" height="32" viewBox="0 0 32 32" fill="none" xmlns="http://www.w3.org/2000/svg">
<path d="M25.6001 22.1576C25.0753 23.2992 24.8249 23.8088 24.1481 24.8176C23.2065 26.2264 21.8769 27.9808 20.2305 27.996C18.7673 28.0096 18.3913 27.0616 16.4057 27.072C14.4201 27.0824 14.0057 28.0128 12.5425 27.9992C10.8961 27.9848 9.63771 26.4 8.69451 24.9904C6.05851 21.0504 5.78331 16.4272 7.40891 13.9696C8.56411 12.2224 10.3873 11.2008 12.1009 11.2008C13.8457 11.2008 14.9425 12.14 16.3857 12.14C17.7857 12.14 18.6377 11.1992 20.6561 11.1992C22.1809 11.1992 23.7969 12.0144 24.9481 13.4232C21.1761 15.4544 21.7889 20.7432 25.6001 22.1576Z" stroke="black" stroke-width="1.92" stroke-miterlimit="10" stroke-linecap="square"/>
<path d="M19.648 7.7776C20.412 6.7976 20.9912 5.4144 20.7808 4C19.5328 4.0856 18.0744 4.8792 17.2224 5.9136C16.4496 6.852 15.8104 8.2448 16.0584 9.5984C17.42 9.6408 18.8296 8.828 19.648 7.7776Z" stroke="black" stroke-width="1.92" stroke-miterlimit="10" stroke-linecap="square"/>
</svg>
