<svg width="36" height="36" viewBox="0 0 36 36" fill="none" xmlns="http://www.w3.org/2000/svg">
<path d="M30.6 16.2L14.4 16.2L14.4 10.8C14.4001 10.6304 14.3522 10.4643 14.262 10.3207C14.1717 10.1771 14.0427 10.0619 13.8899 9.98848C13.737 9.91502 13.5665 9.88624 13.3981 9.90546C13.2296 9.92467 13.0699 9.9911 12.9375 10.0971L3.93753 17.2971C3.83209 17.3814 3.74697 17.4884 3.68848 17.61C3.62998 17.7317 3.59961 17.865 3.59961 18C3.59961 18.135 3.62998 18.2683 3.68848 18.39C3.74697 18.5116 3.83209 18.6186 3.93753 18.7029L12.9375 25.9029C13.0972 26.0306 13.2956 26.1001 13.5 26.1C13.7387 26.1 13.9676 26.0052 14.1364 25.8364C14.3052 25.6676 14.4 25.4387 14.4 25.2L14.4 19.8L30.6 19.8C31.0774 19.8 31.5353 19.6104 31.8728 19.2728C32.2104 18.9352 32.4 18.4774 32.4 18C32.4 17.5226 32.2104 17.0648 31.8728 16.7272C31.5353 16.3896 31.0774 16.2 30.6 16.2Z" fill="white"/>
</svg>
