<svg width="24" height="24" viewBox="0 0 24 24" fill="none" xmlns="http://www.w3.org/2000/svg">
<path d="M20.6752 10.8908L12.6052 2.82255C12.4447 2.66201 12.2271 2.57169 12.0001 2.57141L3.42868 2.57141C3.20135 2.57141 2.98333 2.66172 2.82258 2.82246C2.66184 2.98321 2.57153 3.20123 2.57153 3.42855L2.57153 12C2.57158 12.2273 2.66192 12.4453 2.82268 12.606L10.891 20.676C11.1297 20.9148 11.4132 21.1043 11.7252 21.2335C12.0373 21.3628 12.3717 21.4293 12.7094 21.4293C13.0471 21.4293 13.3815 21.3628 13.6935 21.2335C14.0055 21.1043 14.289 20.9148 14.5278 20.676L20.6752 14.5286C20.9141 14.2898 21.1035 14.0063 21.2328 13.6943C21.362 13.3823 21.4286 13.0478 21.4286 12.7101C21.4286 12.3724 21.362 12.038 21.2328 11.726C21.1035 11.414 20.9141 11.1296 20.6752 10.8908ZM8.57153 10.2857C8.23248 10.2857 7.90104 10.1852 7.61913 9.99679C7.33721 9.80842 7.11749 9.54068 6.98774 9.22744C6.85799 8.91419 6.82404 8.56951 6.89019 8.23697C6.95633 7.90443 7.1196 7.59897 7.35935 7.35923C7.5991 7.11948 7.90455 6.95621 8.23709 6.89006C8.56963 6.82392 8.91432 6.85787 9.22756 6.98762C9.54081 7.11737 9.80854 7.33709 9.99691 7.619C10.1853 7.90092 10.2858 8.23236 10.2858 8.57141C10.2858 9.02607 10.1052 9.4621 9.78372 9.78359C9.46222 10.1051 9.02619 10.2857 8.57153 10.2857Z" fill="#00BDD6"/>
</svg>
