<svg width="24" height="24" viewBox="0 0 24 24" fill="none" xmlns="http://www.w3.org/2000/svg">
<path d="M17.9907 19.2814C17.8749 17.2346 16.7075 16.5848 15.0001 16.0157C13.6955 15.5811 13.3364 14.2114 13.2378 13.4846" stroke="#565E6C" stroke-width="2.05714" stroke-miterlimit="10"/>
<path d="M10.7615 13.4837C10.6647 14.2071 10.3124 15.5786 9.0001 16.0157C7.29267 16.5848 6.12353 17.2328 6.00781 19.2797" stroke="#565E6C" stroke-width="2.05714" stroke-miterlimit="10"/>
<path d="M12.0001 13.7143C10.1067 13.7143 8.57153 12.1791 8.57153 10.2857L8.57153 9.42857C8.57153 7.53514 10.1067 6 12.0001 6C13.8935 6 15.4287 7.53514 15.4287 9.42857V10.2857C15.4287 12.1791 13.8935 13.7143 12.0001 13.7143Z" stroke="#565E6C" stroke-width="2.05714" stroke-miterlimit="10" stroke-linecap="square"/>
<path d="M12.0001 21.4286C17.2074 21.4286 21.4287 17.2072 21.4287 12C21.4287 6.79273 17.2074 2.57141 12.0001 2.57141C6.79285 2.57141 2.57153 6.79273 2.57153 12C2.57153 17.2072 6.79285 21.4286 12.0001 21.4286Z" stroke="#565E6C" stroke-width="2.05714" stroke-miterlimit="10" stroke-linecap="square"/>
</svg>
